<svg xmlns="http://www.w3.org/2000/svg" xmlns:xlink="http://www.w3.org/1999/xlink" width="750" viewBox="0 0 750 150" height="150" version="1.0"><defs><clipPath id="b"><path d="M 345 64.273438 L 404 64.273438 L 404 86.023438 L 345 86.023438 Z M 345 64.273438"/></clipPath><clipPath id="e"><path d="M 38 0.273438 L 43 0.273438 L 43 22 L 38 22 Z M 38 0.273438"/></clipPath><clipPath id="f"><path d="M 40 1 L 58.679688 1 L 58.679688 22.023438 L 40 22.023438 Z M 40 1"/></clipPath><clipPath id="g"><path d="M 0 0.273438 L 39 0.273438 L 39 22 L 0 22 Z M 0 0.273438"/></clipPath><clipPath id="d"><path d="M0 0H59V23H0z"/></clipPath><clipPath id="h"><path d="M 359 64.273438 L 369 64.273438 L 369 85 L 359 85 Z M 359 64.273438"/></clipPath><clipPath id="i"><path d="M 382 64.273438 L 385 64.273438 L 385 86 L 382 86 Z M 382 64.273438"/></clipPath><clipPath id="j"><path d="M 345 64.273438 L 404 64.273438 L 404 86 L 345 86 Z M 345 64.273438"/></clipPath><clipPath id="k"><path d="M 361 64.273438 L 384 64.273438 L 384 86 L 361 86 Z M 361 64.273438"/></clipPath><clipPath id="l"><path d="M 345 64.273438 L 392 64.273438 L 392 67 L 345 67 Z M 345 64.273438"/></clipPath><filter x="0%" y="0%" width="100%" xmlns:xlink="http://www.w3.org/1999/xlink" xlink:type="simple" xlink:actuate="onLoad" height="100%" id="a" xlink:show="other"><feColorMatrix values="0 0 0 0 1 0 0 0 0 1 0 0 0 0 1 0 0 0 1 0" color-interpolation-filters="sRGB"/></filter><mask id="c"><g filter="url(#a)"><path fill-opacity=".098" d="M-75 -15H825V165H-75z"/></g></mask></defs><g clip-path="url(#b)"><g mask="url(#c)"><g><g clip-path="url(#d)" transform="translate(345 64)"><path fill="#FFF" d="M 19.175781 20.65625 L 22.570312 20.78125 C 19.726562 11.746094 16.589844 2.984375 15.410156 1.515625 C 15.222656 3.417969 17.023438 12.027344 19.175781 20.65625 Z M 19.175781 20.65625"/><g clip-path="url(#e)"><path fill="#FFF" d="M 39.390625 0.925781 C 38.820312 8.746094 38.421875 17.347656 38.558594 21.359375 L 39.308594 21.386719 C 40.207031 17.335938 41.449219 8.660156 42.351562 1.03125 Z M 39.390625 0.925781"/></g><g clip-path="url(#f)"><path fill="#FFF" d="M 58.648438 7.570312 L 57.550781 6.386719 C 57.550781 6.386719 57.621094 6.113281 57.679688 5.785156 L 58.257812 4.984375 L 58.21875 3.984375 L 57.601562 3.640625 C 57.722656 3.128906 57.898438 2.613281 57.898438 2.613281 L 58.371094 2.453125 L 58.574219 2.015625 L 57.78125 1.648438 L 52.765625 1.46875 L 43.242188 1.125 C 43.011719 2.132812 42.457031 6.742188 41.796875 11.410156 C 41.078125 16.496094 40.53125 19.550781 40.113281 21.417969 L 51.992188 21.851562 L 56.820312 22.023438 L 57.628906 21.773438 L 57.628906 20.570312 L 57.03125 19.578125 C 57.039062 19.496094 57.050781 19.382812 57.0625 19.25 L 58.273438 18.117188 L 57.09375 16.839844 C 57.164062 16.710938 57.253906 16.570312 57.347656 16.433594 L 58.367188 15.480469 L 57.339844 14.367188 L 57.335938 14.367188 L 57.824219 14.234375 L 57.984375 13.289062 L 58.460938 12.839844 L 57.425781 11.726562 L 57.917969 11.511719 L 58.523438 11.085938 L 58.550781 10.207031 L 57.285156 8.839844 Z M 58.648438 7.570312"/></g><g clip-path="url(#g)"><path fill="#FFF" d="M 38.6875 0.972656 L 22.753906 0.28125 L 21.859375 0.273438 L 5.929688 0.394531 L 5.457031 0.398438 L 1.414062 0.429688 L 0.734375 0.722656 L 0.246094 1.257812 L 1.050781 1.617188 L 1.335938 2.316406 L 0.421875 3.1875 L 0.0976562 4.007812 L 1.070312 4.253906 L 1.355469 4.953125 L 0.765625 5.554688 L 0.414062 6.339844 L 0.839844 7.0625 L 0.84375 7.78125 L 0.621094 8.359375 L 1.0625 9.140625 L 1.394531 10.226562 L 0.445312 10.714844 L 0.496094 11.523438 L 0.9375 12.398438 L 1.414062 12.863281 L 0.660156 13.632812 L 0.722656 14.160156 L 0.742188 14.824219 L 1.433594 15.503906 L 0.128906 16.832031 L 0.828125 17.09375 L 1.453125 18.140625 L 1.175781 18.832031 L 0.429688 19.296875 L 0.558594 20.027344 L 1.230469 20.183594 L 1.472656 20.777344 L 5.496094 20.746094 L 6.304688 20.742188 L 16.089844 20.667969 L 13.582031 5.683594 L 17.324219 20.65625 L 18.242188 20.648438 C 17.738281 18.621094 17.070312 15.851562 16.445312 13.046875 C 13.933594 1.84375 14.476562 1.019531 14.742188 0.625 C 14.871094 0.433594 15.054688 0.324219 15.265625 0.320312 C 15.777344 0.320312 16.640625 0.3125 20.664062 12.058594 C 21.78125 15.320312 22.835938 18.605469 23.53125 20.8125 L 37.734375 21.328125 C 37.667969 19.375 37.710938 16.25 37.960938 11.195312 C 38.171875 6.890625 38.164062 2.902344 38.6875 0.972656 Z M 38.6875 0.972656"/></g></g></g></g></g><g clip-path="url(#h)" fill="#FFF"><path d="M 360.265625 64.324219 C 360.058594 64.328125 359.871094 64.433594 359.742188 64.628906 C 359.480469 65.023438 358.929688 65.847656 361.445312 77.050781 C 362.070312 79.855469 362.742188 82.625 363.242188 84.652344 L 363.898438 84.648438 L 364.175781 84.660156 C 362.023438 76.03125 360.222656 67.417969 360.40625 65.515625 C 361.589844 66.984375 364.726562 75.746094 367.570312 84.78125 L 368.535156 84.816406 C 367.835938 82.609375 366.78125 79.324219 365.664062 76.0625 C 361.640625 64.316406 360.777344 64.320312 360.265625 64.324219 Z M 360.265625 64.324219" fill-opacity=".098"/><path d="M 360.265625 64.324219 C 360.058594 64.328125 359.871094 64.433594 359.742188 64.628906 C 359.480469 65.023438 359.949219 68.226562 362.457031 79.429688 C 363.085938 82.234375 362.738281 82.625 363.242188 84.652344 L 363.894531 84.648438 L 364.175781 84.660156 C 362.023438 76.03125 360.222656 67.417969 360.40625 65.515625 C 361.585938 66.984375 364.722656 75.746094 367.570312 84.78125 L 367.992188 84.796875 L 368.53125 84.816406 C 367.835938 82.609375 366.40625 79.570312 365.289062 76.308594 C 361.265625 64.558594 360.777344 64.320312 360.265625 64.324219 Z M 360.265625 64.324219" fill-opacity=".047"/></g><g clip-path="url(#i)" fill="#FFF" fill-opacity=".098"><path d="M 384.5625 65 L 383.574219 64.964844 C 383.410156 67.273438 383.171875 70.890625 382.960938 75.199219 C 382.714844 80.253906 382.671875 83.378906 382.734375 85.328125 L 383.558594 85.359375 C 383.425781 81.347656 383.945312 73.457031 384.5625 65 Z M 384.5625 65"/><path d="M 384.382812 64.996094 L 383.574219 64.964844 C 383.464844 66.574219 383.679688 70.855469 383.46875 75.164062 C 383.222656 80.21875 382.65625 83.097656 382.71875 85.046875 L 383.5625 85.359375 C 383.425781 81.347656 383.820312 72.746094 384.382812 64.996094 Z M 384.382812 64.996094"/></g><path fill="#FFF" d="M 388.242188 65.121094 L 387.292969 65.09375 C 386.34375 73.355469 385.207031 81.335938 384.3125 85.386719 L 385.113281 85.414062 C 385.53125 83.550781 386.078125 80.492188 386.796875 75.410156 C 387.460938 70.738281 388.042969 66.824219 388.242188 65.121094 Z M 388.242188 65.121094" fill-opacity=".098"/><path fill="#FFF" d="M 388.132812 65.125 L 387.324219 65.09375 C 386.742188 70.121094 384.492188 84.574219 384.144531 85.191406 C 383.964844 85.515625 384.609375 84.027344 384.308594 85.386719 L 386.285156 76.542969 L 385.671875 85.378906 C 386.089844 83.507812 386.078125 80.496094 386.796875 75.410156 C 387.460938 70.738281 388.011719 66.128906 388.132812 65.125 Z M 388.132812 65.125" fill-opacity=".098"/><path fill="#FFF" d="M 361.089844 84.667969 L 362.328125 84.660156 L 358.582031 69.6875 Z M 361.089844 84.667969" fill-opacity=".098"/><path fill="#FFF" d="M 361.089844 84.667969 L 362.328125 84.660156 L 361.007812 81.3125 L 358.582031 69.6875 Z M 361.089844 84.667969" fill-opacity=".047"/><g clip-path="url(#j)"><path fill="#FFF" d="M 403.648438 71.925781 L 402.554688 70.800781 C 402.554688 70.800781 402.625 70.539062 402.683594 70.226562 L 403.261719 69.460938 L 403.222656 68.507812 L 402.601562 68.175781 C 402.726562 67.691406 402.902344 67.199219 402.902344 67.199219 L 403.375 67.046875 L 403.574219 66.632812 L 402.585938 65.617188 L 397.734375 65.449219 L 367.082031 64.40625 L 367.082031 64.285156 L 351.15625 64.40625 L 350.34375 64.410156 L 346.300781 64.441406 L 345.457031 64.859375 L 345.015625 65.691406 L 346.054688 66.273438 L 346.339844 66.9375 L 345.226562 67.574219 L 345.035156 68.207031 L 346.074219 68.785156 L 346.355469 69.453125 L 345.769531 70.023438 L 345.417969 70.777344 L 345.839844 71.464844 L 345.847656 72.148438 L 345.621094 72.699219 L 346.066406 73.445312 L 346.398438 74.484375 L 345.449219 74.949219 L 345.496094 75.71875 L 345.941406 76.550781 L 346.414062 76.996094 L 345.664062 77.726562 L 345.722656 78.226562 L 345.746094 78.859375 L 346.433594 79.507812 L 345.128906 80.777344 L 345.828125 81.023438 L 346.453125 82.019531 L 346.179688 82.683594 L 345.429688 83.125 L 345.558594 83.820312 L 346.226562 83.972656 L 346.472656 84.539062 L 350.496094 84.507812 L 351.304688 84.5 L 363.898438 84.40625 L 396.988281 85.535156 L 401.820312 85.699219 L 402.628906 85.460938 L 402.628906 84.3125 L 402.03125 83.367188 C 402.039062 83.292969 402.050781 83.183594 402.0625 83.050781 L 403.277344 81.972656 L 402.09375 80.757812 C 402.164062 80.632812 402.257812 80.5 402.351562 80.367188 L 403.371094 79.457031 L 402.339844 78.402344 L 402.824219 78.277344 L 402.984375 77.375 L 403.460938 76.945312 L 402.425781 75.882812 L 402.921875 75.679688 L 403.523438 75.277344 L 403.554688 74.4375 L 402.289062 73.132812 Z M 403.648438 71.925781" fill-opacity=".098"/></g><path fill="#FFF" d="M 364.808594 84.84375 C 364.808594 84.84375 360.777344 68.914062 361.394531 68.964844 C 362.007812 69.019531 367.265625 84.785156 367.265625 84.785156 Z M 364.808594 84.84375" fill-opacity=".028"/><g clip-path="url(#k)"><path fill="#FFF" d="M 361.636719 64.324219 C 361.636719 64.324219 368.558594 84.015625 369.699219 84.601562 C 370.839844 85.191406 378.714844 83.941406 378.714844 83.941406 L 381.574219 85.007812 L 383.394531 64.933594 Z M 361.636719 64.324219" fill-opacity=".047"/></g><path fill="#FFF" d="M 397.480469 65.445312 L 389 65.300781 L 386.351562 85.171875 C 386.351562 85.171875 396.066406 68.359375 400.527344 66.738281 C 404.984375 65.117188 402.589844 65.617188 402.589844 65.617188 Z M 397.480469 65.445312" fill-opacity=".028"/><g clip-path="url(#l)"><path fill="#FFF" d="M 345.125 65.996094 L 346.019531 64.601562 L 391.765625 65.652344 L 390.859375 66.574219 L 386.261719 66.625 L 384.257812 66.011719 L 383.898438 65.621094 L 383.054688 66.226562 L 346.90625 65.484375 L 346.503906 65.617188 Z M 345.125 65.996094" fill-opacity=".098"/></g><g fill="#AED1E7"><g><g><path d="M 34.703125 1.09375 C 23.816406 1.09375 15.96875 -1.671875 11.15625 -7.203125 C 6.351562 -12.742188 3.953125 -21.226562 3.953125 -32.65625 L 3.953125 -63.40625 C 3.953125 -72.019531 4.878906 -79.023438 6.734375 -84.421875 C 8.597656 -89.816406 11.726562 -93.875 16.125 -96.59375 C 20.519531 -99.320312 26.617188 -100.6875 34.421875 -100.6875 C 42.953125 -100.6875 49.890625 -98.460938 55.234375 -94.015625 C 60.585938 -89.578125 63.265625 -83.363281 63.265625 -75.375 L 63.265625 -60.140625 L 39.046875 -60.140625 L 39.046875 -74.15625 C 39.046875 -76.78125 38.679688 -78.796875 37.953125 -80.203125 C 37.234375 -81.609375 35.832031 -82.3125 33.75 -82.3125 C 29.84375 -82.3125 27.890625 -79.546875 27.890625 -74.015625 L 27.890625 -25.71875 C 27.890625 -23.445312 28.363281 -21.515625 29.3125 -19.921875 C 30.269531 -18.335938 31.703125 -17.546875 33.609375 -17.546875 C 35.515625 -17.546875 36.941406 -18.316406 37.890625 -19.859375 C 38.847656 -21.398438 39.28125 -23.398438 39.1875 -25.859375 L 39.046875 -42.59375 L 63.265625 -42.59375 L 63.265625 -25.171875 C 63.265625 -17.003906 60.609375 -10.582031 55.296875 -5.90625 C 49.992188 -1.238281 43.128906 1.09375 34.703125 1.09375 Z M 34.703125 1.09375" transform="translate(49.79 124.663)"/></g></g></g><g fill="#AED1E7"><g><g><path d="M 33.75 1.09375 C 13.882812 1.09375 3.953125 -9.203125 3.953125 -29.796875 L 3.953125 -69.796875 C 3.953125 -79.234375 6.601562 -86.738281 11.90625 -92.3125 C 17.207031 -97.894531 24.488281 -100.6875 33.75 -100.6875 C 43 -100.6875 50.273438 -97.894531 55.578125 -92.3125 C 60.890625 -86.738281 63.546875 -79.234375 63.546875 -69.796875 L 63.546875 -29.796875 C 63.546875 -9.203125 53.613281 1.09375 33.75 1.09375 Z M 33.75 -17.28125 C 35.644531 -17.28125 37.046875 -17.957031 37.953125 -19.3125 C 38.867188 -20.675781 39.328125 -22.539062 39.328125 -24.90625 L 39.328125 -73.609375 C 39.328125 -79.410156 37.46875 -82.3125 33.75 -82.3125 C 30.03125 -82.3125 28.171875 -79.410156 28.171875 -73.609375 L 28.171875 -24.90625 C 28.171875 -22.539062 28.625 -20.675781 29.53125 -19.3125 C 30.4375 -17.957031 31.84375 -17.28125 33.75 -17.28125 Z M 33.75 -17.28125" transform="translate(126.118 124.663)"/></g></g></g><g fill="#AED1E7"><g><g><path d="M 4.765625 -99.59375 L 28.984375 -99.59375 L 28.984375 -94.296875 C 32.429688 -98.554688 37.191406 -100.6875 43.265625 -100.6875 C 50.972656 -100.6875 56.347656 -98.097656 59.390625 -92.921875 C 62.429688 -87.753906 63.953125 -80.59375 63.953125 -71.4375 L 63.953125 -34.5625 C 63.953125 -26.757812 63.5 -20.382812 62.59375 -15.4375 C 61.6875 -10.5 59.6875 -6.507812 56.59375 -3.46875 C 53.507812 -0.425781 48.84375 1.09375 42.59375 1.09375 C 36.601562 1.09375 32.066406 -0.585938 28.984375 -3.953125 L 28.984375 19.859375 L 4.765625 19.859375 Z M 34.703125 -17.421875 C 36.878906 -17.421875 38.28125 -18.414062 38.90625 -20.40625 C 39.539062 -22.40625 39.859375 -25.3125 39.859375 -29.125 L 39.859375 -71.4375 C 39.859375 -74.882812 39.539062 -77.515625 38.90625 -79.328125 C 38.28125 -81.140625 36.832031 -82.046875 34.5625 -82.046875 C 30.84375 -82.046875 28.984375 -78.597656 28.984375 -71.703125 L 28.984375 -28.03125 C 28.984375 -24.675781 29.367188 -22.066406 30.140625 -20.203125 C 30.910156 -18.347656 32.429688 -17.421875 34.703125 -17.421875 Z M 34.703125 -17.421875" transform="translate(203.262 124.663)"/></g></g></g><g fill="#AED1E7"><g><g><path d="M 33.75 1.09375 C 13.882812 1.09375 3.953125 -9.203125 3.953125 -29.796875 L 3.953125 -69.796875 C 3.953125 -79.234375 6.601562 -86.738281 11.90625 -92.3125 C 17.207031 -97.894531 24.488281 -100.6875 33.75 -100.6875 C 43 -100.6875 50.273438 -97.894531 55.578125 -92.3125 C 60.890625 -86.738281 63.546875 -79.234375 63.546875 -69.796875 L 63.546875 -29.796875 C 63.546875 -9.203125 53.613281 1.09375 33.75 1.09375 Z M 33.75 -17.28125 C 35.644531 -17.28125 37.046875 -17.957031 37.953125 -19.3125 C 38.867188 -20.675781 39.328125 -22.539062 39.328125 -24.90625 L 39.328125 -73.609375 C 39.328125 -79.410156 37.46875 -82.3125 33.75 -82.3125 C 30.03125 -82.3125 28.171875 -79.410156 28.171875 -73.609375 L 28.171875 -24.90625 C 28.171875 -22.539062 28.625 -20.675781 29.53125 -19.3125 C 30.4375 -17.957031 31.84375 -17.28125 33.75 -17.28125 Z M 33.75 -17.28125" transform="translate(280.814 124.663)"/></g></g></g><g fill="#AED1E7"><g><g><path d="M 25.3125 1.09375 C 19.050781 1.09375 14.738281 -0.21875 12.375 -2.84375 C 10.019531 -5.476562 8.84375 -9.703125 8.84375 -15.515625 L 8.84375 -77.6875 L 2.171875 -77.6875 L 2.171875 -95.78125 L 8.84375 -95.78125 L 8.84375 -116.875 L 31.96875 -116.875 L 31.96875 -95.78125 L 38.78125 -95.78125 L 38.78125 -77.6875 L 31.96875 -77.6875 L 31.96875 -21.765625 C 31.96875 -20.046875 32.101562 -18.773438 32.375 -17.953125 C 32.65625 -17.140625 33.382812 -16.734375 34.5625 -16.734375 C 35.46875 -16.734375 36.328125 -16.773438 37.140625 -16.859375 C 37.960938 -16.953125 38.507812 -17 38.78125 -17 L 38.78125 -0.6875 C 37.414062 -0.320312 35.441406 0.0625 32.859375 0.46875 C 30.273438 0.882812 27.757812 1.09375 25.3125 1.09375 Z M 25.3125 1.09375" transform="translate(357.958 124.663)"/></g></g></g><g fill="#AED1E7"><g><g><path d="M 32.65625 1.09375 C 22.40625 1.09375 15.054688 -1.71875 10.609375 -7.34375 C 6.171875 -12.96875 3.953125 -21.359375 3.953125 -32.515625 L 3.953125 -72.515625 C 3.953125 -81.679688 6.582031 -88.664062 11.84375 -93.46875 C 17.101562 -98.28125 24.445312 -100.6875 33.875 -100.6875 C 53.019531 -100.6875 62.59375 -91.296875 62.59375 -72.515625 L 62.59375 -65.3125 C 62.59375 -58.050781 62.5 -52.15625 62.3125 -47.625 L 27.75 -47.625 L 27.75 -28.296875 C 27.75 -24.847656 28.113281 -22.148438 28.84375 -20.203125 C 29.570312 -18.253906 31.113281 -17.28125 33.46875 -17.28125 C 35.28125 -17.28125 36.570312 -17.820312 37.34375 -18.90625 C 38.113281 -20 38.566406 -21.25 38.703125 -22.65625 C 38.835938 -24.0625 38.90625 -26.125 38.90625 -28.84375 L 38.90625 -38.5 L 62.59375 -38.5 L 62.59375 -32.796875 C 62.59375 -21.179688 60.347656 -12.628906 55.859375 -7.140625 C 51.367188 -1.648438 43.632812 1.09375 32.65625 1.09375 Z M 38.90625 -59.453125 L 38.90625 -72.25 C 38.90625 -79.414062 37.140625 -83 33.609375 -83 C 29.617188 -83 27.625 -79.414062 27.625 -72.25 L 27.625 -59.453125 Z M 38.90625 -59.453125" transform="translate(408.979 124.663)"/></g></g></g><g fill="#AED1E7"><g><g><path d="M 34.703125 1.09375 C 23.816406 1.09375 15.96875 -1.671875 11.15625 -7.203125 C 6.351562 -12.742188 3.953125 -21.226562 3.953125 -32.65625 L 3.953125 -63.40625 C 3.953125 -72.019531 4.878906 -79.023438 6.734375 -84.421875 C 8.597656 -89.816406 11.726562 -93.875 16.125 -96.59375 C 20.519531 -99.320312 26.617188 -100.6875 34.421875 -100.6875 C 42.953125 -100.6875 49.890625 -98.460938 55.234375 -94.015625 C 60.585938 -89.578125 63.265625 -83.363281 63.265625 -75.375 L 63.265625 -60.140625 L 39.046875 -60.140625 L 39.046875 -74.15625 C 39.046875 -76.78125 38.679688 -78.796875 37.953125 -80.203125 C 37.234375 -81.609375 35.832031 -82.3125 33.75 -82.3125 C 29.84375 -82.3125 27.890625 -79.546875 27.890625 -74.015625 L 27.890625 -25.71875 C 27.890625 -23.445312 28.363281 -21.515625 29.3125 -19.921875 C 30.269531 -18.335938 31.703125 -17.546875 33.609375 -17.546875 C 35.515625 -17.546875 36.941406 -18.316406 37.890625 -19.859375 C 38.847656 -21.398438 39.28125 -23.398438 39.1875 -25.859375 L 39.046875 -42.59375 L 63.265625 -42.59375 L 63.265625 -25.171875 C 63.265625 -17.003906 60.609375 -10.582031 55.296875 -5.90625 C 49.992188 -1.238281 43.128906 1.09375 34.703125 1.09375 Z M 34.703125 1.09375" transform="translate(484.898 124.663)"/></g></g></g><g fill="#AED1E7"><g><g><path d="M 4.765625 -99.59375 L 28.578125 -99.59375 L 28.578125 -86.9375 C 29.566406 -91.019531 31.285156 -94.332031 33.734375 -96.875 C 36.191406 -99.414062 39.460938 -100.6875 43.546875 -100.6875 C 50.253906 -100.6875 55.21875 -98.617188 58.4375 -94.484375 C 61.65625 -90.359375 63.265625 -84.488281 63.265625 -76.875 L 63.265625 0 L 39.859375 0 L 39.859375 -74.421875 C 39.859375 -76.597656 39.425781 -78.457031 38.5625 -80 C 37.707031 -81.539062 36.375 -82.3125 34.5625 -82.3125 C 32.113281 -82.3125 30.503906 -81.203125 29.734375 -78.984375 C 28.960938 -76.765625 28.578125 -73.796875 28.578125 -70.078125 L 28.578125 0 L 4.765625 0 Z M 4.765625 -99.59375" transform="translate(561.226 124.663)"/></g></g></g><g fill="#AED1E7"><g><g><path d="M 33.75 1.09375 C 13.882812 1.09375 3.953125 -9.203125 3.953125 -29.796875 L 3.953125 -69.796875 C 3.953125 -79.234375 6.601562 -86.738281 11.90625 -92.3125 C 17.207031 -97.894531 24.488281 -100.6875 33.75 -100.6875 C 43 -100.6875 50.273438 -97.894531 55.578125 -92.3125 C 60.890625 -86.738281 63.546875 -79.234375 63.546875 -69.796875 L 63.546875 -29.796875 C 63.546875 -9.203125 53.613281 1.09375 33.75 1.09375 Z M 33.75 -17.28125 C 35.644531 -17.28125 37.046875 -17.957031 37.953125 -19.3125 C 38.867188 -20.675781 39.328125 -22.539062 39.328125 -24.90625 L 39.328125 -73.609375 C 39.328125 -79.410156 37.46875 -82.3125 33.75 -82.3125 C 30.03125 -82.3125 28.171875 -79.410156 28.171875 -73.609375 L 28.171875 -24.90625 C 28.171875 -22.539062 28.625 -20.675781 29.53125 -19.3125 C 30.4375 -17.957031 31.84375 -17.28125 33.75 -17.28125 Z M 33.75 -17.28125" transform="translate(638.641 124.663)"/></g></g></g><path transform="matrix(.75 0 0 .75 -1.21 -30.6)" fill="none" d="M 106.223576 200.461465 C 91.723575 200.461465 81.270449 196.768756 74.864199 189.388548 C 68.457949 182.008339 65.254823 170.701047 65.254823 155.461462 L 65.254823 114.451043 C 65.254823 102.966668 66.494407 93.633334 68.973574 86.461458 C 71.457949 79.258333 75.619407 73.836458 81.463158 70.206249 C 87.338158 66.576041 95.473575 64.758332 105.869409 64.758332 C 117.233993 64.758332 126.49441 67.727082 133.640244 73.659374 C 140.780869 79.565625 144.353786 87.846875 144.353786 98.508334 L 144.353786 118.83646 L 112.067326 118.83646 L 112.067326 100.143751 C 112.067326 96.633334 111.582951 93.945834 110.608993 92.086459 C 109.635034 90.195834 107.760034 89.247917 104.983992 89.247917 C 99.786075 89.247917 97.187117 92.940625 97.187117 100.320834 L 97.187117 164.72188 C 97.187117 167.732296 97.822534 170.300005 99.093367 172.425005 C 100.3642 174.550005 102.265242 175.617714 104.806909 175.617714 C 107.343368 175.617714 109.249618 174.581255 110.520451 172.513547 C 111.786076 170.445838 112.364201 167.789588 112.244409 164.544796 L 112.067326 142.221878 L 144.353786 142.221878 L 144.353786 165.430213 C 144.353786 176.326047 140.812119 184.888547 133.728786 191.117714 C 126.640244 197.346881 117.473576 200.461465 106.223576 200.461465 Z M 206.754832 200.461465 C 180.265247 200.461465 167.025663 186.732298 167.025663 159.273963 L 167.025663 105.945834 C 167.025663 93.367709 170.551705 83.3625 177.608997 75.919791 C 184.697539 68.477082 194.411081 64.758332 206.754832 64.758332 C 219.093374 64.758332 228.791291 68.477082 235.848583 75.919791 C 242.937125 83.3625 246.478792 93.367709 246.478792 105.945834 L 246.478792 159.273963 C 246.478792 186.732298 233.239208 200.461465 206.754832 200.461465 Z M 206.754832 175.97188 C 209.29129 175.97188 211.16629 175.070838 212.374624 173.268755 C 213.588165 171.435422 214.192332 168.94063 214.192332 165.78438 L 214.192332 100.852084 C 214.192332 93.117709 211.713165 89.247917 206.754832 89.247917 C 201.79129 89.247917 199.312123 93.117709 199.312123 100.852084 L 199.312123 165.78438 C 199.312123 168.94063 199.91629 171.435422 201.129831 173.268755 C 202.338165 175.070838 204.213165 175.97188 206.754832 175.97188 Z M 270.947544 66.221874 L 303.234004 66.221874 L 303.234004 73.263541 C 307.838171 67.591666 314.202755 64.758332 322.322547 64.758332 C 332.598589 64.758332 339.754839 68.211457 343.801715 75.122916 C 347.84859 82.003125 349.869423 91.555209 349.869423 103.779168 L 349.869423 152.940629 C 349.869423 163.331254 349.265257 171.820838 348.051715 178.404172 C 346.843382 184.987506 344.187131 190.320839 340.082964 194.393756 C 335.978798 198.440632 329.749631 200.461465 321.390255 200.461465 C 313.421505 200.461465 307.364213 198.216673 303.234004 193.72709 L 303.234004 225.487508 L 270.947544 225.487508 Z M 310.848588 175.794797 C 313.775671 175.794797 315.650671 174.461463 316.473588 171.805213 C 317.332963 169.117713 317.760046 165.237505 317.760046 160.159379 L 317.760046 103.779168 C 317.760046 99.169792 317.332963 95.659376 316.473588 93.2375 C 315.650671 90.815625 313.713171 89.607292 310.671504 89.607292 C 305.713171 89.607292 303.234004 94.195834 303.234004 103.378126 L 303.234004 161.617713 C 303.234004 166.107296 303.749629 169.591672 304.780879 172.070838 C 305.817337 174.550005 307.838171 175.794797 310.848588 175.794797 Z M 413.01526 200.461465 C 386.525675 200.461465 373.286091 186.732298 373.286091 159.273963 L 373.286091 105.945834 C 373.286091 93.367709 376.812133 83.3625 383.869425 75.919791 C 390.957967 68.477082 400.67151 64.758332 413.01526 64.758332 C 425.353803 64.758332 435.056928 68.477082 442.109012 75.919791 C 449.197554 83.3625 452.739221 93.367709 452.739221 105.945834 L 452.739221 159.273963 C 452.739221 186.732298 439.499637 200.461465 413.01526 200.461465 Z M 413.01526 175.97188 C 415.551719 175.97188 417.426719 175.070838 418.640261 173.268755 C 419.848594 171.435422 420.452761 168.94063 420.452761 165.78438 L 420.452761 100.852084 C 420.452761 93.117709 417.973594 89.247917 413.01526 89.247917 C 408.051718 89.247917 405.572552 93.117709 405.572552 100.852084 L 405.572552 165.78438 C 405.572552 168.94063 406.176718 171.435422 407.39026 173.268755 C 408.598593 175.070838 410.473594 175.97188 413.01526 175.97188 Z M 504.619432 200.461465 C 496.265265 200.461465 490.510057 198.706257 487.348598 195.190631 C 484.21839 191.675006 482.655889 186.055214 482.655889 178.31563 L 482.655889 95.404167 L 473.796514 95.404167 L 473.796514 71.268749 L 482.655889 71.268749 L 482.655889 43.190622 L 513.525683 43.190622 L 513.525683 71.268749 L 522.556933 71.268749 L 522.556933 95.404167 L 513.525683 95.404167 L 513.525683 169.992713 C 513.525683 172.263547 513.702766 173.945838 514.056933 175.039588 C 514.4111 176.133339 515.369433 176.680214 516.931933 176.680214 C 518.145475 176.680214 519.296517 176.617714 520.390267 176.50313 C 521.484017 176.383339 522.202767 176.326047 522.556933 176.326047 L 522.556933 198.112507 C 520.760058 198.586465 518.12985 199.086465 514.676725 199.617715 C 511.223599 200.180215 507.869433 200.461465 504.619432 200.461465 Z M 582.437145 200.461465 C 568.765269 200.461465 558.963186 196.711465 553.030894 189.211464 C 547.124643 181.711464 544.171518 170.523963 544.171518 155.638546 L 544.171518 102.315626 C 544.171518 90.091667 547.671518 80.773958 554.66631 74.367708 C 561.697561 67.961457 571.499645 64.758332 584.07777 64.758332 C 609.588189 64.758332 622.343398 77.279166 622.343398 102.315626 L 622.343398 111.925001 C 622.343398 121.612502 622.223606 129.466669 621.989231 135.487503 L 575.926728 135.487503 L 575.926728 161.263546 C 575.926728 165.872921 576.400687 169.47188 577.343395 172.070838 C 578.317353 174.669797 580.385062 175.97188 583.54652 175.97188 C 585.968395 175.97188 587.676729 175.247922 588.681937 173.800005 C 589.718396 172.352088 590.322562 170.701047 590.499646 168.836463 C 590.676729 166.951046 590.765271 164.19063 590.765271 160.555213 L 590.765271 147.669795 L 622.343398 147.669795 L 622.343398 155.284379 C 622.343398 170.758338 619.348606 182.154172 613.353814 189.477089 C 607.390272 196.800006 597.082979 200.461465 582.437145 200.461465 Z M 590.765271 119.721877 L 590.765271 102.669793 C 590.765271 93.102084 588.416312 88.320833 583.723604 88.320833 C 578.379853 88.320833 575.707978 93.102084 575.707978 102.669793 L 575.707978 119.721877 Z M 686.364235 200.461465 C 671.869442 200.461465 661.416317 196.768756 655.010066 189.388548 C 648.603816 182.008339 645.395482 170.701047 645.395482 155.461462 L 645.395482 114.451043 C 645.395482 102.966668 646.640274 93.633334 649.119441 86.461458 C 651.598608 79.258333 655.760066 73.836458 661.609025 70.206249 C 667.484025 66.576041 675.619442 64.758332 686.010068 64.758332 C 697.37986 64.758332 706.635069 67.727082 713.780903 73.659374 C 720.926737 79.565625 724.499654 87.846875 724.499654 98.508334 L 724.499654 118.83646 L 692.213193 118.83646 L 692.213193 100.143751 C 692.213193 96.633334 691.72361 93.945834 690.749652 92.086459 C 689.775693 90.195834 687.900693 89.247917 685.124651 89.247917 C 679.926734 89.247917 677.332984 92.940625 677.332984 100.320834 L 677.332984 164.72188 C 677.332984 167.732296 677.963192 170.300005 679.234026 172.425005 C 680.504859 174.550005 682.411109 175.617714 684.947568 175.617714 C 687.489235 175.617714 689.390276 174.581255 690.66111 172.513547 C 691.931943 170.445838 692.50486 167.789588 692.390277 164.544796 L 692.213193 142.221878 L 724.499654 142.221878 L 724.499654 165.430213 C 724.499654 176.326047 720.957987 184.888547 713.869445 191.117714 C 706.780903 197.346881 697.614235 200.461465 686.364235 200.461465 Z M 748.228822 66.221874 L 779.984032 66.221874 L 779.984032 83.091666 C 781.317365 77.633333 783.603824 73.216666 786.848616 69.852082 C 790.129866 66.456249 794.499658 64.758332 799.9632 64.758332 C 808.905908 64.758332 815.520492 67.518749 819.801742 73.039583 C 824.114243 78.534375 826.270493 86.357292 826.270493 96.513542 L 826.270493 198.997923 L 795.046533 198.997923 L 795.046533 99.747917 C 795.046533 96.852084 794.468408 94.388542 793.317366 92.352084 C 792.166324 90.284375 790.379866 89.247917 787.957991 89.247917 C 784.70799 89.247917 782.567365 90.742709 781.536115 93.721875 C 780.504865 96.675001 779.984032 100.633334 779.984032 105.591668 L 779.984032 198.997923 L 748.228822 198.997923 Z M 890.114247 200.461465 C 863.62987 200.461465 850.390286 186.732298 850.390286 159.273963 L 850.390286 105.945834 C 850.390286 93.367709 853.916328 83.3625 860.97362 75.919791 C 868.062162 68.477082 877.775704 64.758332 890.114247 64.758332 C 902.457997 64.758332 912.155914 68.477082 919.213207 75.919791 C 926.301749 83.3625 929.843416 93.367709 929.843416 105.945834 L 929.843416 159.273963 C 929.843416 186.732298 916.603831 200.461465 890.114247 200.461465 Z M 890.114247 175.97188 C 892.655913 175.97188 894.530913 175.070838 895.739247 173.268755 C 896.952789 171.435422 897.556955 168.94063 897.556955 165.78438 L 897.556955 100.852084 C 897.556955 93.117709 895.077788 89.247917 890.114247 89.247917 C 885.155913 89.247917 882.676746 93.117709 882.676746 100.852084 L 882.676746 165.78438 C 882.676746 168.94063 883.280913 171.435422 884.489246 173.268755 C 885.702788 175.070838 887.577788 175.97188 890.114247 175.97188 Z M 890.114247 175.97188" stroke="#69A7CE" stroke-width="6.803"/></svg>